<svg width="20" height="18" viewBox="0 0 20 18" fill="none" xmlns="http://www.w3.org/2000/svg">
<path d="M10.0004 1.55852C8.90786 0.556289 7.47776 4.65691e-05 5.99349 0C5.20789 0.000815974 4.4302 0.156612 3.70518 0.458421C2.98016 0.760231 2.32213 1.2021 1.76896 1.75859C-0.590488 4.12237 -0.589485 7.81961 1.77096 10.1734L9.12304 17.5078C9.29351 17.8069 9.62241 18 10.0004 18C10.1557 17.9985 10.3084 17.9607 10.4463 17.8896C10.5842 17.8186 10.7035 17.7163 10.7946 17.5909L18.2299 10.1734C20.5904 7.81861 20.5904 4.12237 18.2279 1.75458C17.675 1.19912 17.0175 0.75815 16.2932 0.457036C15.5689 0.155922 14.7921 0.000599806 14.0074 0C12.5232 0.00024204 11.0931 0.556458 10.0004 1.55852ZM16.81 3.16906C18.3773 4.74058 18.3783 7.1954 16.812 8.75892L10.0004 15.5542L3.18883 8.75892C1.62256 7.1954 1.62356 4.74058 3.18683 3.17306C3.94891 2.41681 4.94563 2.00067 5.99349 2.00067C7.04136 2.00067 8.03407 2.41681 8.79013 3.17106L9.2915 3.67122C9.38455 3.7642 9.49505 3.83796 9.6167 3.88829C9.73835 3.93862 9.86875 3.96452 10.0004 3.96452C10.1321 3.96452 10.2625 3.93862 10.3842 3.88829C10.5058 3.83796 10.6163 3.7642 10.7094 3.67122L11.2107 3.17106C12.7269 1.66155 15.2959 1.66556 16.81 3.16906Z" fill="#A4A4A4"/>
</svg>
