<svg width="20" height="19" viewBox="0 0 20 19" fill="none" xmlns="http://www.w3.org/2000/svg">
<path d="M9.31127 0.252267C9.49427 0.0897557 9.73052 0 9.97527 0C10.22 0 10.4563 0.0897557 10.6393 0.252267L19.6393 8.25227C19.8274 8.43098 19.9387 8.67583 19.9496 8.93509C19.9606 9.19434 19.8703 9.4477 19.6979 9.64165C19.5256 9.83559 19.2845 9.95493 19.0258 9.97445C18.767 9.99397 18.5108 9.91215 18.3113 9.74627L17.9753 9.44927V16.9993C17.9753 17.5297 17.7646 18.0384 17.3895 18.4135C17.0144 18.7886 16.5057 18.9993 15.9753 18.9993H12.9753H6.97527H3.97527C3.44484 18.9993 2.93613 18.7886 2.56105 18.4135C2.18598 18.0384 1.97527 17.5297 1.97527 16.9993V9.44927L1.63927 9.74627C1.43973 9.91215 1.18352 9.99397 0.924768 9.97445C0.666017 9.95493 0.424985 9.83559 0.252592 9.64165C0.080198 9.4477 -0.0100576 9.19434 0.000891447 8.93509C0.0118405 8.67583 0.123137 8.43098 0.311269 8.25227L9.31127 0.252267ZM3.97527 7.66927V16.9993H6.97527V11.9993C6.97527 11.7341 7.08063 11.4797 7.26816 11.2922C7.4557 11.1046 7.71005 10.9993 7.97527 10.9993H11.9753C12.2405 10.9993 12.4948 11.1046 12.6824 11.2922C12.8699 11.4797 12.9753 11.7341 12.9753 11.9993V16.9993H15.9753V7.67027L9.97527 2.33727L3.97527 7.66927ZM10.9753 16.9993V12.9993H8.97527V16.9993H10.9753Z" fill="#A4A4A4"/>
</svg>
